<svg width="431" height="132" viewBox="0 0 431 132" fill="none" xmlns="http://www.w3.org/2000/svg">
<path d="M174.672 97.8535C170.404 97.8535 167.889 95.248 167.889 90.8008V43.4082H154.502C150.818 43.4082 148.348 41.2969 148.348 37.793C148.348 34.2891 150.773 32.1777 154.502 32.1777H194.887C198.57 32.1777 200.996 34.2891 200.996 37.793C200.996 41.2969 198.525 43.4082 194.887 43.4082H181.455V90.8008C181.455 95.248 178.939 97.8535 174.672 97.8535ZM218.291 97.9434C213.754 97.9434 211.373 95.832 209.98 91.0703L200.277 57.5137C199.783 55.8066 199.559 54.7285 199.559 53.4707C199.559 50.1914 202.209 47.8555 205.893 47.8555C209.172 47.8555 211.283 49.832 212.047 53.4258L219.189 84.5566H219.459L226.916 53.875C227.77 49.9668 230.33 47.8555 234.328 47.8555C238.236 47.8555 240.797 49.9668 241.65 53.875L249.152 84.5566H249.422L256.609 53.3359C257.328 49.832 259.439 47.8555 262.674 47.8555C266.312 47.8555 268.873 50.1465 268.873 53.4258C268.873 54.6387 268.648 55.7168 268.154 57.4238L258.451 91.0254C257.104 95.7871 254.588 97.9434 250.051 97.9434C245.244 97.9434 242.684 95.877 241.561 90.9805L234.238 62.9492H233.969L226.691 91.0703C225.568 95.832 222.963 97.9434 218.291 97.9434ZM296.186 98.0332C281.631 98.0332 272.332 88.6895 272.332 72.877C272.332 57.2891 281.766 47.8105 296.186 47.8105C310.605 47.8105 320.039 57.2441 320.039 72.877C320.039 88.7344 310.74 98.0332 296.186 98.0332ZM296.186 88.0156C302.609 88.0156 306.697 82.5801 306.697 72.9219C306.697 63.3535 302.564 57.8281 296.186 57.8281C289.807 57.8281 285.629 63.3535 285.629 72.9219C285.629 82.5801 289.717 88.0156 296.186 88.0156ZM344.701 97.7637C332.662 97.7637 325.07 88.2402 325.07 72.832C325.07 57.5586 332.707 48.0801 344.791 48.0801C351.754 48.0801 357.145 51.7637 359.48 57.1094H359.75V38.0625C359.75 33.5703 362.49 31.1895 366.309 31.1895C370.172 31.1895 372.867 33.5703 372.867 38.0625V91.2949C372.867 95.6523 370.172 97.9434 366.354 97.9434C362.58 97.9434 359.75 95.6973 359.75 91.2949V88.5098H359.525C357.414 93.9004 352.113 97.7637 344.701 97.7637ZM349.148 87.207C355.662 87.207 359.84 81.7266 359.84 72.9219C359.84 64.1621 355.662 58.5918 349.148 58.5918C342.545 58.5918 338.502 64.1172 338.502 72.9219C338.502 81.7715 342.545 87.207 349.148 87.207ZM403.729 98.0332C389.174 98.0332 379.875 88.6895 379.875 72.877C379.875 57.2891 389.309 47.8105 403.729 47.8105C418.148 47.8105 427.582 57.2441 427.582 72.877C427.582 88.7344 418.283 98.0332 403.729 98.0332ZM403.729 88.0156C410.152 88.0156 414.24 82.5801 414.24 72.9219C414.24 63.3535 410.107 57.8281 403.729 57.8281C397.35 57.8281 393.172 63.3535 393.172 72.9219C393.172 82.5801 397.26 88.0156 403.729 88.0156Z" fill="#888888"/>
<path d="M63.811 75.6794L64.3971 76.2656C68.3625 80.2309 74.7915 80.2309 78.7569 76.2655L114.248 40.7738C116.396 38.6258 119.878 38.6258 122.026 40.7736V40.7736C124.175 42.9215 124.175 46.4041 122.027 48.5521L78.7569 91.8218C74.7915 95.7871 68.3625 95.7871 64.3972 91.8218L40.4641 67.8887C38.3162 65.7409 38.3162 62.2585 40.4641 60.1106V60.1106C42.612 57.9627 46.0943 57.9627 48.2422 60.1106L56.0395 67.9079L63.811 75.6794ZM67.6988 64.0053C65.5568 61.8634 65.5567 58.3907 67.6986 56.2488L87.1814 36.7655C89.3233 34.6236 92.796 34.6236 94.938 36.7655V36.7655C97.0799 38.9074 97.0799 42.3801 94.938 44.522L75.4551 64.0051C73.3132 66.1469 69.8407 66.147 67.6988 64.0053V64.0053ZM44.3876 87.3443C46.5337 89.4904 46.5337 92.9699 44.3876 95.1159V95.1159C42.2415 97.2619 38.7621 97.2619 36.616 95.1159L9.38901 67.8887C7.24117 65.7408 7.24118 62.2585 9.38903 60.1106L9.46751 60.0322C11.5721 57.9276 14.9842 57.9277 17.0887 60.0323L21.0466 63.9904C21.0483 63.9922 21.0483 63.995 21.0465 63.9966V63.9966C21.0447 63.9983 21.0447 64.0011 21.0464 64.0028L44.3876 87.3443Z" fill="#888888"/>
</svg>
